<svg xmlns="http://www.w3.org/2000/svg" viewBox="0 0 32 32" fill="none">
  <defs>
    <linearGradient id="gradient" x1="0%" y1="0%" x2="100%" y2="100%">
      <stop offset="0%" style="stop-color:#06b6d4;stop-opacity:1" />
      <stop offset="50%" style="stop-color:#3b82f6;stop-opacity:1" />
      <stop offset="100%" style="stop-color:#8b5cf6;stop-opacity:1" />
    </linearGradient>
    <linearGradient id="accent" x1="0%" y1="0%" x2="100%" y2="100%">
      <stop offset="0%" style="stop-color:#f59e0b;stop-opacity:1" />
      <stop offset="100%" style="stop-color:#ef4444;stop-opacity:1" />
    </linearGradient>
  </defs>
  
  <!-- Background circle with gradient -->
  <circle cx="16" cy="16" r="15" fill="url(#gradient)" stroke="none"/>
  
  <!-- Proper 'S' shape representing Shashank -->
  <path d="M20 11 C20 9, 18 9, 16 9 L14 9 C12 9, 10 11, 10 13 C10 15, 12 15, 14 15 L18 15 C20 15, 22 17, 22 19 C22 21, 20 23, 18 23 L14 23 C12 23, 10 21, 10 21" 
        fill="none" 
        stroke="white" 
        stroke-width="2.5" 
        stroke-linecap="round" 
        stroke-linejoin="round"/>
        
  <!-- Accent dot for modern tech feel -->
  <circle cx="25" cy="8" r="2" fill="url(#accent)"/>
  
  <!-- Subtle geometric elements -->
  <rect x="6" y="6" width="1.5" height="1.5" fill="rgba(255,255,255,0.3)" rx="0.5"/>
  <rect x="24.5" y="24.5" width="1.5" height="1.5" fill="rgba(255,255,255,0.3)" rx="0.5"/>
</svg>